<?xml version="1.0" standalone="no"?><!DOCTYPE svg PUBLIC "-//W3C//DTD SVG 1.1//EN" "http://www.w3.org/Graphics/SVG/1.1/DTD/svg11.dtd"><svg t="1592266508910" class="icon" viewBox="0 0 1024 1024" version="1.1" xmlns="http://www.w3.org/2000/svg" p-id="3505" xmlns:xlink="http://www.w3.org/1999/xlink" width="200" height="200"><defs><style type="text/css"></style></defs><path d="M418.133333 648.533333c8.533333 8.533333 19.2 12.8 29.866667 12.8 10.666667 0 21.333333-4.266667 29.866667-12.8l76.8-76.8 76.8 76.8c8.533333 8.533333 19.2 12.8 29.866666 12.8 10.666667 0 21.333333-4.266667 29.866667-12.8 17.066667-17.066667 17.066667-42.666667 0-59.733333L614.4 512l76.8-76.8c17.066667-17.066667 17.066667-42.666667 0-59.733333-17.066667-17.066667-42.666667-17.066667-59.733333 0L554.666667 452.266667l-76.8-76.8c-17.066667-17.066667-42.666667-17.066667-59.733334 0-17.066667 17.066667-17.066667 42.666667 0 59.733333l76.8 76.8-76.8 76.8c-17.066667 17.066667-17.066667 42.666667 0 59.733333" fill="#8a8a8a" p-id="3506"></path><path d="M25.6 531.2c-6.4-12.8-6.4-27.733333 0-40.533333l170.666667-320c8.533333-12.8 23.466667-21.333333 38.4-21.333334h725.333333c23.466667 0 42.666667 19.2 42.666667 42.666667v640c0 23.466667-19.2 42.666667-42.666667 42.666667H234.666667c-14.933333 0-29.866667-8.533333-38.4-23.466667l-170.666667-320z m234.666667-296.533333L113.066667 512l147.2 277.333333H917.333333V234.666667H260.266667z" fill="#8a8a8a" p-id="3507"></path></svg>