<?xml version="1.0" standalone="no"?><!DOCTYPE svg PUBLIC "-//W3C//DTD SVG 1.1//EN" "http://www.w3.org/Graphics/SVG/1.1/DTD/svg11.dtd"><svg t="1592265731093" class="icon" viewBox="0 0 1024 1024" version="1.1" xmlns="http://www.w3.org/2000/svg" p-id="4091" xmlns:xlink="http://www.w3.org/1999/xlink" width="200" height="200"><defs><style type="text/css"></style></defs><path d="M512 85.333333a426.666667 426.666667 0 1 0 426.666667 426.666667A427.157333 427.157333 0 0 0 512 85.333333z m0 810.666667a384 384 0 1 1 384-384 384.426667 384.426667 0 0 1-384 384z" fill="#bfbfbf" p-id="4092"></path><path d="M633.749333 390.250667a21.333333 21.333333 0 0 0-30.165333 0L512 481.834667l-91.584-91.584a21.333333 21.333333 0 0 0-30.165333 30.165333L481.834667 512l-91.584 91.584a21.333333 21.333333 0 1 0 30.165333 30.165333L512 542.165333l91.584 91.584a21.333333 21.333333 0 0 0 30.165333-30.165333L542.165333 512l91.584-91.584a21.333333 21.333333 0 0 0 0-30.165333z" fill="#bfbfbf" p-id="4093"></path></svg>