<?xml version="1.0" standalone="no"?><!DOCTYPE svg PUBLIC "-//W3C//DTD SVG 1.1//EN" "http://www.w3.org/Graphics/SVG/1.1/DTD/svg11.dtd"><svg t="1591924410491" class="icon" viewBox="0 0 1024 1024" version="1.1" xmlns="http://www.w3.org/2000/svg" p-id="4018" xmlns:xlink="http://www.w3.org/1999/xlink" width="200" height="200"><defs><style type="text/css"></style></defs><path d="M102.8 468.6c-1.9 0-3.8-0.2-5.7-0.5-17.1-3.1-28.5-19.6-25.3-36.7C110.8 219 296 64.9 512.1 64.9S913.4 219 952.4 431.3c1.7 9.2-0.8 18.7-6.8 25.9-6 7.2-14.9 11.3-24.2 11.3h-116c-17.4 0-31.5-14.1-31.5-31.5s14.1-31.5 31.5-31.5h76.2C834.6 242.6 684.9 128 512.1 128c-185.7 0-344.8 132.4-378.3 314.8-2.8 15.1-16 25.8-31 25.8zM512.1 960.6c-216.1 0-401.3-154.1-440.3-366.4-1.7-9.2 0.8-18.7 6.8-25.9 6-7.2 14.9-11.4 24.2-11.4h116c17.4 0 31.5 14.1 31.5 31.5s-14.1 31.5-31.5 31.5h-76.2c47 162.9 196.7 277.5 369.5 277.5 185.7 0 344.8-132.4 378.3-314.8 3.1-17.1 19.5-28.5 36.7-25.3 17.1 3.1 28.5 19.6 25.3 36.7-39 212.4-224.2 366.6-440.3 366.6z" fill="#040000" p-id="4019"></path><path d="M396.1 722.8c-6.5 0-13-2-18.5-6-9.7-7.1-14.6-19-12.6-30.8l19.4-112.9-82-79.9c-8.6-8.4-11.7-20.9-8-32.3s13.6-19.7 25.5-21.5l113.3-16.5 50.7-102.7c5.3-10.8 16.3-17.6 28.3-17.6s23 6.8 28.3 17.6l50.7 102.7 113.3 16.5c11.9 1.7 21.7 10 25.5 21.5 3.7 11.4 0.6 24-8 32.3l-82 79.9L659.4 686c2 11.8-2.8 23.8-12.6 30.8-9.7 7.1-22.6 8-33.2 2.4l-101.3-53.3L411 719.2c-4.8 2.4-9.9 3.6-14.9 3.6z m-3.9-230.2l48.1 46.9c7.4 7.2 10.8 17.7 9.1 27.9L438 633.6l59.5-31.3c9.2-4.8 20.2-4.8 29.4 0l59.5 31.3-11.4-66.2c-1.7-10.2 1.6-20.7 9.1-27.9l48.1-46.9-66.5-9.7c-10.3-1.5-19.1-7.9-23.7-17.2l-29.7-60.2-29.7 60.2c-4.6 9.3-13.5 15.8-23.8 17.2l-66.6 9.7z" fill="#040000" p-id="4020"></path></svg>