<?xml version="1.0" standalone="no"?><!DOCTYPE svg PUBLIC "-//W3C//DTD SVG 1.1//EN" "http://www.w3.org/Graphics/SVG/1.1/DTD/svg11.dtd"><svg t="1591964523556" class="icon" viewBox="0 0 1024 1024" version="1.1" xmlns="http://www.w3.org/2000/svg" p-id="1193" xmlns:xlink="http://www.w3.org/1999/xlink" width="200" height="200"><defs><style type="text/css"></style></defs><path d="M732.503 220.714H605.438V108.682h41.684c12.385 0 22.407-10.033 22.407-22.407s-10.022-22.407-22.407-22.407H376.908c-12.374 0-22.407 10.033-22.407 22.407s10.033 22.407 22.407 22.407h40.382v112.033H290.214c-51.837 0-94.003 42.166-94.003 94.003v506.599c0 51.837 42.166 94.003 94.003 94.003h41.115v22.407c0 12.385 10.033 22.407 22.407 22.407s22.407-10.022 22.407-22.407V915.32h270.433v22.407c0 12.385 10.022 22.407 22.407 22.407s22.407-10.022 22.407-22.407V915.32h41.115c51.837 0 94.003-42.166 94.003-94.003v-506.6c-0.002-51.837-42.168-94.003-94.005-94.003zM470.309 108.682h82.088v112.033h-82.088V108.682z m311.383 712.634c0 27.133-22.056 49.189-49.189 49.189H290.214c-27.122 0-49.189-22.056-49.189-49.189V314.717c0-27.122 22.067-49.189 49.189-49.189h442.289c27.133 0 49.189 22.067 49.189 49.189v506.599z" fill="#ea9518" p-id="1194"></path><path d="M664.495 489.593H358.221c-39.66 0-71.935 32.264-71.935 71.924v147.437c0 39.649 32.275 71.924 71.935 71.924h306.274c39.671 0 71.946-32.275 71.946-71.924V561.518c0.001-39.66-32.274-71.925-71.946-71.925z m27.133 219.362c0 14.945-12.166 27.111-27.133 27.111H358.221c-14.956 0-27.122-12.166-27.122-27.111V561.518c0-14.945 12.166-27.111 27.122-27.111h306.274c14.967 0 27.133 12.166 27.133 27.111v147.437zM714.035 355.154H308.693c-12.374 0-22.407 10.033-22.407 22.407s10.033 22.407 22.407 22.407h405.342c12.385 0 22.407-10.033 22.407-22.407s-10.022-22.407-22.407-22.407z" fill="#ea9518" p-id="1195"></path><path d="M600.974 579.22H421.721c-12.374 0-22.407 10.022-22.407 22.407s10.033 22.407 22.407 22.407h179.253c12.385 0 22.407-10.022 22.407-22.407s-10.022-22.407-22.407-22.407z" fill="#ea9518" p-id="1196"></path></svg>