<?xml version="1.0" standalone="no"?><!DOCTYPE svg PUBLIC "-//W3C//DTD SVG 1.1//EN" "http://www.w3.org/Graphics/SVG/1.1/DTD/svg11.dtd"><svg t="1591924400090" class="icon" viewBox="0 0 1024 1024" version="1.1" xmlns="http://www.w3.org/2000/svg" p-id="3601" xmlns:xlink="http://www.w3.org/1999/xlink" width="200" height="200"><defs><style type="text/css"></style></defs><path d="M508.3 937c-7.6 0-15.3-0.2-23-0.6-213-11.2-388.5-186.7-399.7-399.7-6.2-117.4 34.9-228.9 115.5-313.9C281.8 137.8 390.8 91 508 91c4.8 0 9.4 0.3 14.1 0.6l6 0.4c16.6 0.8 29.7 14.5 29.7 31.1v316.3c0 24 19.5 43.5 43.5 43.5h298.6c17.2 0 31.1 13.9 31.1 31.1 0 117.2-46.8 226.2-131.9 306.9C719.7 896.2 617.2 937 508.3 937z m-12.7-783.6c-95.2 3.2-183.3 42.8-249.3 112.3-68.8 72.5-103.8 167.6-98.5 267.8 9.5 181.6 159.2 331.3 340.8 340.8 100.4 5.1 195.3-29.7 267.8-98.5 65-61.6 103.8-142.6 111.2-230.6H601.3c-58.3 0-105.7-47.4-105.7-105.7V153.4z" fill="#040000" p-id="3602"></path><path d="M881.2 414.5H657.3c-17.2 0-31.1-13.9-31.1-31.1V148.8c0-8.5 3.5-16.6 9.6-22.5 6.2-5.9 14.2-8.9 22.9-8.6 142.2 6.7 253.6 123.4 253.6 265.6 0 17.2-13.9 31.2-31.1 31.2z m-192.8-62.2h159.4C835 268.5 771.3 201.4 688.4 184v168.3z" fill="#040000" p-id="3603"></path></svg>