<?xml version="1.0" standalone="no"?><!DOCTYPE svg PUBLIC "-//W3C//DTD SVG 1.1//EN" "http://www.w3.org/Graphics/SVG/1.1/DTD/svg11.dtd"><svg t="1591924407269" class="icon" viewBox="0 0 1024 1024" version="1.1" xmlns="http://www.w3.org/2000/svg" p-id="3879" xmlns:xlink="http://www.w3.org/1999/xlink" width="200" height="200"><defs><style type="text/css"></style></defs><path d="M826.5 869.7H200c-56 0-101.5-48.7-101.5-108.5V636c0-28.7 10.7-55.7 30.2-76.1l14.5-15.3c16.9-17.7 16.9-46.6 0-64.3L128.6 465c-19.4-20.4-30.1-47.5-30.1-76.1V263.5C98.5 203.7 144 155 200 155h626.5c56 0 101.5 48.7 101.5 108.5v125.3c0 28.7-10.7 55.7-30.2 76.1l-14.5 15.3c-16.9 17.7-16.9 46.6 0 64.3l14.6 15.3c19.4 20.4 30.1 47.5 30.1 76.1v125.3c0 59.8-45.6 108.5-101.5 108.5zM200 218.8c-20.8 0-37.7 20-37.7 44.7v125.3c0 12.1 4.6 23.8 12.6 32.1l14.6 15.3c40 42 40 110.3 0 152.4L175 603.9c-8 8.4-12.6 20.1-12.6 32.1v125.3c0 24.2 17.3 44.7 37.7 44.7h626.5c20.5 0 37.7-20.5 37.7-44.7V636c0-12.1-4.6-23.8-12.6-32.1l-14.6-15.3c-40-42-40-110.3 0-152.3l14.6-15.3c8-8.4 12.6-20.1 12.6-32.1V263.5c0-24.2-17.3-44.7-37.7-44.7H200z m660.2 239.4h0.2-0.2z" fill="#040000" p-id="3880"></path><path d="M704.7 467.7H474.9c-17.6 0-31.9-14.3-31.9-31.9 0-17.6 14.3-31.9 31.9-31.9h229.7c17.6 0 31.9 14.3 31.9 31.9 0.1 17.6-14.2 31.9-31.8 31.9z" fill="#040000" p-id="3881"></path><path d="M340.9 435.8m-38.3 0a38.3 38.3 0 1 0 76.6 0 38.3 38.3 0 1 0-76.6 0Z" p-id="3882"></path><path d="M704.7 620.8H474.9c-17.6 0-31.9-14.3-31.9-31.9s14.3-31.9 31.9-31.9h229.7c17.6 0 31.9 14.3 31.9 31.9s-14.2 31.9-31.8 31.9z" fill="#040000" p-id="3883"></path><path d="M340.9 588.9m-38.3 0a38.3 38.3 0 1 0 76.6 0 38.3 38.3 0 1 0-76.6 0Z" p-id="3884"></path></svg>